<svg width="1419" height="197" viewBox="0 0 1419 197" fill="none" xmlns="http://www.w3.org/2000/svg">
<path d="M7.52841 100V93.608L31.5341 67.3295C34.3513 64.2519 36.6714 61.5767 38.4943 59.304C40.3172 57.0076 41.6667 54.8532 42.5426 52.8409C43.4422 50.8049 43.892 48.6742 43.892 46.4489C43.892 43.892 43.2765 41.6785 42.0455 39.8082C40.8381 37.938 39.1809 36.4938 37.0739 35.4759C34.9669 34.4579 32.5994 33.9489 29.9716 33.9489C27.178 33.9489 24.7396 34.5289 22.6562 35.6889C20.5966 36.8253 18.9986 38.4233 17.8622 40.483C16.7495 42.5426 16.1932 44.9574 16.1932 47.7273H7.8125C7.8125 43.4659 8.79498 39.7254 10.7599 36.5057C12.7249 33.286 15.4001 30.7765 18.7855 28.9773C22.1946 27.178 26.018 26.2784 30.2557 26.2784C34.517 26.2784 38.2931 27.178 41.5838 28.9773C44.8745 30.7765 47.455 33.2031 49.3253 36.2571C51.1955 39.3111 52.1307 42.7083 52.1307 46.4489C52.1307 49.1241 51.6454 51.7401 50.6747 54.2969C49.7277 56.83 48.0705 59.6591 45.7031 62.7841C43.3594 65.8854 40.1042 69.6733 35.9375 74.1477L19.6023 91.6193V92.1875H53.4091V100H7.52841ZM91.7969 100.994C86.4465 100.994 81.8892 99.5384 78.125 96.6264C74.3608 93.6908 71.4844 89.4413 69.4957 83.8778C67.5071 78.2907 66.5128 71.5436 66.5128 63.6364C66.5128 55.7765 67.5071 49.0649 69.4957 43.5014C71.508 37.9143 74.3963 33.6529 78.1605 30.7173C81.9484 27.758 86.4938 26.2784 91.7969 26.2784C97.0999 26.2784 101.634 27.758 105.398 30.7173C109.186 33.6529 112.074 37.9143 114.062 43.5014C116.075 49.0649 117.081 55.7765 117.081 63.6364C117.081 71.5436 116.087 78.2907 114.098 83.8778C112.109 89.4413 109.233 93.6908 105.469 96.6264C101.705 99.5384 97.1473 100.994 91.7969 100.994ZM91.7969 93.1818C97.0999 93.1818 101.219 90.625 104.155 85.5114C107.09 80.3977 108.558 73.1061 108.558 63.6364C108.558 57.339 107.884 51.9768 106.534 47.5497C105.208 43.1226 103.291 39.7491 100.781 37.429C98.2955 35.1089 95.3007 33.9489 91.7969 33.9489C86.5412 33.9489 82.4337 36.5412 79.4744 41.7259C76.5152 46.8868 75.0355 54.1903 75.0355 63.6364C75.0355 69.9337 75.6984 75.2841 77.0241 79.6875C78.3499 84.0909 80.2557 87.4408 82.7415 89.7372C85.2509 92.0336 88.2694 93.1818 91.7969 93.1818ZM141.797 27.2727L141.087 79.5455H132.848L132.138 27.2727H141.797ZM136.967 100.568C135.215 100.568 133.712 99.9408 132.457 98.6861C131.203 97.4313 130.575 95.928 130.575 94.1761C130.575 92.4242 131.203 90.9209 132.457 89.6662C133.712 88.4115 135.215 87.7841 136.967 87.7841C138.719 87.7841 140.223 88.4115 141.477 89.6662C142.732 90.9209 143.359 92.4242 143.359 94.1761C143.359 95.3362 143.063 96.4015 142.472 97.3722C141.903 98.3428 141.134 99.1241 140.163 99.7159C139.216 100.284 138.151 100.568 136.967 100.568Z" fill="#006CA9"/>
<path d="M1261.82 180.085V172.841L1293.78 122.273H1299.04V133.494H1295.49L1271.34 171.705V172.273H1314.38V180.085H1261.82ZM1296.06 195V177.884V174.51V122.273H1304.44V195H1296.06Z" fill="#FA8F00"/>
<path d="M206.764 93.4545L201.295 88.0568L227.716 61.6364L201.295 35.2869L206.764 29.8182L238.582 61.6364L206.764 93.4545ZM165.5 73.9943V66.1818H228.781L220.969 73.9943H165.5ZM165.5 57.0909V49.2784H220.969L228.781 57.0909H165.5ZM255.939 98V91.608L279.944 65.3295C282.761 62.2519 285.082 59.5767 286.904 57.304C288.727 55.0076 290.077 52.8532 290.953 50.8409C291.852 48.8049 292.302 46.6742 292.302 44.4489C292.302 41.892 291.687 39.6785 290.456 37.8082C289.248 35.938 287.591 34.4938 285.484 33.4759C283.377 32.4579 281.01 31.9489 278.382 31.9489C275.588 31.9489 273.15 32.5289 271.066 33.6889C269.007 34.8253 267.409 36.4233 266.272 38.483C265.16 40.5426 264.603 42.9574 264.603 45.7273H256.223C256.223 41.4659 257.205 37.7254 259.17 34.5057C261.135 31.286 263.81 28.7765 267.196 26.9773C270.605 25.178 274.428 24.2784 278.666 24.2784C282.927 24.2784 286.703 25.178 289.994 26.9773C293.285 28.7765 295.865 31.2031 297.735 34.2571C299.606 37.3111 300.541 40.7083 300.541 44.4489C300.541 47.1241 300.056 49.7401 299.085 52.2969C298.138 54.83 296.481 57.6591 294.113 60.7841C291.77 63.8854 288.514 67.6733 284.348 72.1477L268.012 89.6193V90.1875H301.819V98H255.939ZM313.218 83.0852V75.8409L345.179 25.2727H350.434V36.4943H346.883L322.735 74.7045V75.2727H365.775V83.0852H313.218ZM347.451 98V80.8835V77.5099V25.2727H355.832V98H347.451ZM403.657 98.9943C398.969 98.9943 394.791 98.1894 391.121 96.5795C387.476 94.9697 384.576 92.7325 382.421 89.8679C380.29 86.9796 379.13 83.6297 378.941 79.8182H387.89C388.079 82.1619 388.884 84.1861 390.305 85.8906C391.725 87.5715 393.584 88.8736 395.88 89.7969C398.176 90.7202 400.721 91.1818 403.515 91.1818C406.64 91.1818 409.41 90.6373 411.825 89.5483C414.239 88.4593 416.133 86.9441 417.506 85.0028C418.879 83.0616 419.566 80.8125 419.566 78.2557C419.566 75.5805 418.903 73.2249 417.577 71.1889C416.252 69.1293 414.31 67.5194 411.754 66.3594C409.197 65.1993 406.072 64.6193 402.379 64.6193H396.555V56.8068H402.379C405.267 56.8068 407.8 56.286 409.978 55.2443C412.18 54.2026 413.896 52.7348 415.127 50.8409C416.382 48.947 417.009 46.7216 417.009 44.1648C417.009 41.7026 416.465 39.5601 415.376 37.7372C414.287 35.9143 412.748 34.4938 410.759 33.4759C408.794 32.4579 406.474 31.9489 403.799 31.9489C401.29 31.9489 398.922 32.4105 396.697 33.3338C394.495 34.2334 392.696 35.5473 391.299 37.2756C389.902 38.9801 389.145 41.0398 389.026 43.4545H380.504C380.646 39.643 381.794 36.3049 383.948 33.4403C386.103 30.5521 388.92 28.303 392.4 26.6932C395.904 25.0833 399.751 24.2784 403.941 24.2784C408.439 24.2784 412.298 25.1899 415.518 27.0128C418.737 28.812 421.211 31.1913 422.94 34.1506C424.668 37.1098 425.532 40.3059 425.532 43.7386C425.532 47.8343 424.455 51.3262 422.3 54.2145C420.17 57.1027 417.27 59.1032 413.6 60.2159V60.7841C418.193 61.5417 421.78 63.4948 424.36 66.6435C426.941 69.7685 428.231 73.6392 428.231 78.2557C428.231 82.2093 427.154 85.7604 424.999 88.9091C422.869 92.0341 419.957 94.4962 416.263 96.2955C412.57 98.0947 408.368 98.9943 403.657 98.9943ZM442.755 98V91.608L466.761 65.3295C469.578 62.2519 471.898 59.5767 473.721 57.304C475.544 55.0076 476.893 52.8532 477.769 50.8409C478.669 48.8049 479.119 46.6742 479.119 44.4489C479.119 41.892 478.503 39.6785 477.272 37.8082C476.065 35.938 474.407 34.4938 472.3 33.4759C470.193 32.4579 467.826 31.9489 465.198 31.9489C462.405 31.9489 459.966 32.5289 457.883 33.6889C455.823 34.8253 454.225 36.4233 453.089 38.483C451.976 40.5426 451.42 42.9574 451.42 45.7273H443.039C443.039 41.4659 444.022 37.7254 445.987 34.5057C447.951 31.286 450.627 28.7765 454.012 26.9773C457.421 25.178 461.245 24.2784 465.482 24.2784C469.744 24.2784 473.52 25.178 476.81 26.9773C480.101 28.7765 482.682 31.2031 484.552 34.2571C486.422 37.3111 487.357 40.7083 487.357 44.4489C487.357 47.1241 486.872 49.7401 485.901 52.2969C484.954 54.83 483.297 57.6591 480.93 60.7841C478.586 63.8854 475.331 67.6733 471.164 72.1477L454.829 89.6193V90.1875H488.636V98H442.755ZM526.455 24.2784C529.438 24.3021 532.421 24.8703 535.404 25.983C538.387 27.0956 541.11 28.9422 543.572 31.5227C546.034 34.0795 548.011 37.5715 549.502 41.9986C550.994 46.4257 551.739 51.9773 551.739 58.6534C551.739 65.1165 551.124 70.8575 549.893 75.8764C548.685 80.8717 546.933 85.0857 544.637 88.5185C542.364 91.9512 539.594 94.5554 536.327 96.331C533.084 98.1065 529.415 98.9943 525.319 98.9943C521.247 98.9943 517.613 98.1894 514.417 96.5795C511.245 94.946 508.64 92.6851 506.604 89.7969C504.592 86.8849 503.302 83.5114 502.734 79.6761H511.398C512.18 83.0142 513.73 85.7723 516.05 87.9503C518.394 90.1046 521.484 91.1818 525.319 91.1818C530.93 91.1818 535.357 88.7315 538.6 83.831C541.867 78.9304 543.501 72.0057 543.501 63.0568H542.933C541.607 65.0455 540.032 66.7618 538.21 68.206C536.387 69.6501 534.362 70.7628 532.137 71.544C529.912 72.3253 527.544 72.7159 525.035 72.7159C520.868 72.7159 517.045 71.6861 513.565 69.6264C510.108 67.5431 507.338 64.6903 505.255 61.0682C503.195 57.4223 502.165 53.2557 502.165 48.5682C502.165 44.1174 503.16 40.0455 505.148 36.3523C507.161 32.6354 509.978 29.6761 513.6 27.4744C517.246 25.2727 521.531 24.2074 526.455 24.2784ZM526.455 32.0909C523.472 32.0909 520.785 32.8366 518.394 34.3281C516.027 35.7959 514.145 37.7846 512.748 40.294C511.375 42.7798 510.688 45.5379 510.688 48.5682C510.688 51.5985 511.351 54.3565 512.677 56.8423C514.026 59.3044 515.861 61.2694 518.181 62.7372C520.525 64.1813 523.188 64.9034 526.171 64.9034C528.42 64.9034 530.515 64.4654 532.457 63.5895C534.398 62.6899 536.091 61.4706 537.535 59.9318C539.003 58.3693 540.151 56.6056 540.979 54.6406C541.808 52.652 542.222 50.5805 542.222 48.4261C542.222 45.5852 541.536 42.9219 540.163 40.4361C538.813 37.9503 536.943 35.938 534.552 34.3991C532.184 32.8603 529.486 32.0909 526.455 32.0909ZM589.426 98.9943C584.075 98.9943 579.518 97.5384 575.754 94.6264C571.99 91.6908 569.113 87.4413 567.125 81.8778C565.136 76.2907 564.142 69.5436 564.142 61.6364C564.142 53.7765 565.136 47.0649 567.125 41.5014C569.137 35.9143 572.025 31.6529 575.789 28.7173C579.577 25.758 584.123 24.2784 589.426 24.2784C594.729 24.2784 599.262 25.758 603.027 28.7173C606.815 31.6529 609.703 35.9143 611.691 41.5014C613.704 47.0649 614.71 53.7765 614.71 61.6364C614.71 69.5436 613.716 76.2907 611.727 81.8778C609.738 87.4413 606.862 91.6908 603.098 94.6264C599.333 97.5384 594.776 98.9943 589.426 98.9943ZM589.426 91.1818C594.729 91.1818 598.848 88.625 601.784 83.5114C604.719 78.3977 606.187 71.1061 606.187 61.6364C606.187 55.339 605.512 49.9768 604.163 45.5497C602.837 41.1226 600.92 37.7491 598.41 35.429C595.924 33.1089 592.93 31.9489 589.426 31.9489C584.17 31.9489 580.063 34.5412 577.103 39.7259C574.144 44.8868 572.664 52.1903 572.664 61.6364C572.664 67.9337 573.327 73.2841 574.653 77.6875C575.979 82.0909 577.885 85.4408 580.37 87.7372C582.88 90.0336 585.898 91.1818 589.426 91.1818ZM628.204 98V91.608L652.21 65.3295C655.027 62.2519 657.347 59.5767 659.17 57.304C660.993 55.0076 662.342 52.8532 663.218 50.8409C664.118 48.8049 664.568 46.6742 664.568 44.4489C664.568 41.892 663.952 39.6785 662.721 37.8082C661.514 35.938 659.857 34.4938 657.75 33.4759C655.643 32.4579 653.275 31.9489 650.647 31.9489C647.854 31.9489 645.415 32.5289 643.332 33.6889C641.272 34.8253 639.674 36.4233 638.538 38.483C637.425 40.5426 636.869 42.9574 636.869 45.7273H628.488C628.488 41.4659 629.471 37.7254 631.436 34.5057C633.401 31.286 636.076 28.7765 639.461 26.9773C642.87 25.178 646.694 24.2784 650.931 24.2784C655.193 24.2784 658.969 25.178 662.26 26.9773C665.55 28.7765 668.131 31.2031 670.001 34.2571C671.871 37.3111 672.806 40.7083 672.806 44.4489C672.806 47.1241 672.321 49.7401 671.35 52.2969C670.404 54.83 668.746 57.6591 666.379 60.7841C664.035 63.8854 660.78 67.6733 656.613 72.1477L640.278 89.6193V90.1875H674.085V98H628.204ZM712.473 98.9943C707.122 98.9943 702.565 97.5384 698.801 94.6264C695.037 91.6908 692.16 87.4413 690.172 81.8778C688.183 76.2907 687.189 69.5436 687.189 61.6364C687.189 53.7765 688.183 47.0649 690.172 41.5014C692.184 35.9143 695.072 31.6529 698.836 28.7173C702.624 25.758 707.17 24.2784 712.473 24.2784C717.776 24.2784 722.309 25.758 726.074 28.7173C729.861 31.6529 732.75 35.9143 734.738 41.5014C736.751 47.0649 737.757 53.7765 737.757 61.6364C737.757 69.5436 736.762 76.2907 734.774 81.8778C732.785 87.4413 729.909 91.6908 726.145 94.6264C722.38 97.5384 717.823 98.9943 712.473 98.9943ZM712.473 91.1818C717.776 91.1818 721.895 88.625 724.831 83.5114C727.766 78.3977 729.234 71.1061 729.234 61.6364C729.234 55.339 728.559 49.9768 727.21 45.5497C725.884 41.1226 723.967 37.7491 721.457 35.429C718.971 33.1089 715.976 31.9489 712.473 31.9489C707.217 31.9489 703.109 34.5412 700.15 39.7259C697.191 44.8868 695.711 52.1903 695.711 61.6364C695.711 67.9337 696.374 73.2841 697.7 77.6875C699.026 82.0909 700.931 85.4408 703.417 87.7372C705.927 90.0336 708.945 91.1818 712.473 91.1818ZM774.973 98.9943C769.622 98.9943 765.065 97.5384 761.301 94.6264C757.537 91.6908 754.66 87.4413 752.672 81.8778C750.683 76.2907 749.689 69.5436 749.689 61.6364C749.689 53.7765 750.683 47.0649 752.672 41.5014C754.684 35.9143 757.572 31.6529 761.336 28.7173C765.124 25.758 769.67 24.2784 774.973 24.2784C780.276 24.2784 784.809 25.758 788.574 28.7173C792.361 31.6529 795.25 35.9143 797.238 41.5014C799.251 47.0649 800.257 53.7765 800.257 61.6364C800.257 69.5436 799.262 76.2907 797.274 81.8778C795.285 87.4413 792.409 91.6908 788.645 94.6264C784.88 97.5384 780.323 98.9943 774.973 98.9943ZM774.973 91.1818C780.276 91.1818 784.395 88.625 787.331 83.5114C790.266 78.3977 791.734 71.1061 791.734 61.6364C791.734 55.339 791.059 49.9768 789.71 45.5497C788.384 41.1226 786.467 37.7491 783.957 35.429C781.471 33.1089 778.476 31.9489 774.973 31.9489C769.717 31.9489 765.609 34.5412 762.65 39.7259C759.691 44.8868 758.211 52.1903 758.211 61.6364C758.211 67.9337 758.874 73.2841 760.2 77.6875C761.526 82.0909 763.431 85.4408 765.917 87.7372C768.427 90.0336 771.445 91.1818 774.973 91.1818ZM837.047 98.9943C832.17 98.9943 827.861 98.1302 824.12 96.402C820.404 94.6501 817.503 92.2472 815.42 89.1932C813.337 86.1155 812.307 82.6117 812.331 78.6818C812.307 75.6042 812.911 72.7633 814.142 70.1591C815.373 67.5312 817.054 65.3414 819.184 63.5895C821.339 61.8139 823.742 60.6894 826.393 60.2159V59.7898C822.913 58.8902 820.143 56.937 818.083 53.9304C816.024 50.9001 815.006 47.4555 815.029 43.5966C815.006 39.9034 815.941 36.6009 817.835 33.6889C819.729 30.777 822.333 28.4806 825.647 26.7997C828.985 25.1188 832.785 24.2784 837.047 24.2784C841.261 24.2784 845.025 25.1188 848.339 26.7997C851.654 28.4806 854.258 30.777 856.152 33.6889C858.069 36.6009 859.04 39.9034 859.064 43.5966C859.04 47.4555 857.986 50.9001 855.903 53.9304C853.843 56.937 851.109 58.8902 847.7 59.7898V60.2159C850.328 60.6894 852.695 61.8139 854.802 63.5895C856.909 65.3414 858.59 67.5312 859.845 70.1591C861.1 72.7633 861.739 75.6042 861.762 78.6818C861.739 82.6117 860.673 86.1155 858.566 89.1932C856.483 92.2472 853.583 94.6501 849.866 96.402C846.173 98.1302 841.9 98.9943 837.047 98.9943ZM837.047 91.1818C840.337 91.1818 843.178 90.6491 845.569 89.5838C847.96 88.5185 849.807 87.0152 851.109 85.0739C852.411 83.1326 853.074 80.8598 853.098 78.2557C853.074 75.5095 852.364 73.0829 850.967 70.9759C849.57 68.8688 847.664 67.2116 845.25 66.0043C842.859 64.7969 840.124 64.1932 837.047 64.1932C833.945 64.1932 831.175 64.7969 828.737 66.0043C826.322 67.2116 824.416 68.8688 823.02 70.9759C821.646 73.0829 820.972 75.5095 820.995 78.2557C820.972 80.8598 821.599 83.1326 822.877 85.0739C824.18 87.0152 826.038 88.5185 828.453 89.5838C830.868 90.6491 833.732 91.1818 837.047 91.1818ZM837.047 56.6648C839.651 56.6648 841.959 56.1439 843.971 55.1023C846.007 54.0606 847.605 52.6046 848.765 50.7344C849.925 48.8641 850.517 46.6742 850.541 44.1648C850.517 41.7026 849.937 39.5601 848.801 37.7372C847.664 35.8906 846.09 34.4702 844.078 33.4759C842.065 32.4579 839.722 31.9489 837.047 31.9489C834.324 31.9489 831.945 32.4579 829.909 33.4759C827.873 34.4702 826.298 35.8906 825.186 37.7372C824.073 39.5601 823.529 41.7026 823.552 44.1648C823.529 46.6742 824.085 48.8641 825.221 50.7344C826.381 52.6046 827.979 54.0606 830.015 55.1023C832.051 56.1439 834.395 56.6648 837.047 56.6648ZM900.94 25.2727V98H892.134V34.5057H891.707L873.952 46.2955V37.3466L892.134 25.2727H900.94ZM924.129 98L956.658 33.6534V33.0852H919.158V25.2727H965.749V33.5114L933.362 98H924.129ZM1001.57 98.9943C998.588 98.947 995.605 98.3788 992.622 97.2898C989.639 96.2008 986.916 94.366 984.454 91.7855C981.992 89.1813 980.015 85.6657 978.524 81.2386C977.032 76.7879 976.287 71.2008 976.287 64.4773C976.287 58.0379 976.89 52.3324 978.098 47.3608C979.305 42.3655 981.057 38.1634 983.353 34.7543C985.65 31.3215 988.42 28.7173 991.663 26.9418C994.93 25.1662 998.611 24.2784 1002.71 24.2784C1006.78 24.2784 1010.4 25.0952 1013.57 26.7287C1016.77 28.3385 1019.37 30.5876 1021.39 33.4759C1023.4 36.3641 1024.7 39.6903 1025.29 43.4545H1016.63C1015.82 40.1875 1014.26 37.4768 1011.94 35.3224C1009.62 33.1681 1006.54 32.0909 1002.71 32.0909C997.073 32.0909 992.634 34.5412 989.39 39.4418C986.171 44.3423 984.549 51.2197 984.525 60.0739H985.093C986.419 58.0616 987.993 56.3452 989.816 54.9247C991.663 53.4806 993.699 52.3679 995.924 51.5866C998.15 50.8054 1000.51 50.4148 1002.99 50.4148C1007.16 50.4148 1010.97 51.4564 1014.43 53.5398C1017.88 55.5994 1020.65 58.4522 1022.74 62.098C1024.82 65.7202 1025.86 69.875 1025.86 74.5625C1025.86 79.0606 1024.85 83.1799 1022.84 86.9205C1020.83 90.6373 1018 93.5966 1014.35 95.7983C1010.73 97.9763 1006.47 99.0417 1001.57 98.9943ZM1001.57 91.1818C1004.55 91.1818 1007.23 90.4361 1009.6 88.9446C1011.99 87.4531 1013.87 85.4527 1015.24 82.9432C1016.64 80.4337 1017.34 77.6402 1017.34 74.5625C1017.34 71.5559 1016.66 68.8215 1015.31 66.3594C1013.99 63.8736 1012.15 61.8968 1009.81 60.429C1007.49 58.9612 1004.84 58.2273 1001.85 58.2273C999.606 58.2273 997.511 58.6771 995.569 59.5767C993.628 60.4527 991.923 61.66 990.456 63.1989C989.011 64.7377 987.875 66.5014 987.047 68.4901C986.218 70.455 985.804 72.5265 985.804 74.7045C985.804 77.5928 986.478 80.2917 987.828 82.8011C989.201 85.3106 991.071 87.3348 993.439 88.8736C995.83 90.4124 998.54 91.1818 1001.57 91.1818ZM1063.97 98.9943C1060.99 98.947 1058.01 98.3788 1055.02 97.2898C1052.04 96.2008 1049.32 94.366 1046.86 91.7855C1044.39 89.1813 1042.42 85.6657 1040.93 81.2386C1039.43 76.7879 1038.69 71.2008 1038.69 64.4773C1038.69 58.0379 1039.29 52.3324 1040.5 47.3608C1041.71 42.3655 1043.46 38.1634 1045.76 34.7543C1048.05 31.3215 1050.82 28.7173 1054.07 26.9418C1057.33 25.1662 1061.01 24.2784 1065.11 24.2784C1069.18 24.2784 1072.8 25.0952 1075.98 26.7287C1079.17 28.3385 1081.78 30.5876 1083.79 33.4759C1085.8 36.3641 1087.1 39.6903 1087.69 43.4545H1079.03C1078.22 40.1875 1076.66 37.4768 1074.34 35.3224C1072.02 33.1681 1068.94 32.0909 1065.11 32.0909C1059.47 32.0909 1055.04 34.5412 1051.79 39.4418C1048.57 44.3423 1046.95 51.2197 1046.93 60.0739H1047.5C1048.82 58.0616 1050.4 56.3452 1052.22 54.9247C1054.07 53.4806 1056.1 52.3679 1058.33 51.5866C1060.55 50.8054 1062.91 50.4148 1065.39 50.4148C1069.56 50.4148 1073.37 51.4564 1076.83 53.5398C1080.28 55.5994 1083.05 58.4522 1085.14 62.098C1087.22 65.7202 1088.26 69.875 1088.26 74.5625C1088.26 79.0606 1087.26 83.1799 1085.24 86.9205C1083.23 90.6373 1080.4 93.5966 1076.76 95.7983C1073.13 97.9763 1068.87 99.0417 1063.97 98.9943ZM1063.97 91.1818C1066.96 91.1818 1069.63 90.4361 1072 88.9446C1074.39 87.4531 1076.27 85.4527 1077.64 82.9432C1079.04 80.4337 1079.74 77.6402 1079.74 74.5625C1079.74 71.5559 1079.07 68.8215 1077.72 66.3594C1076.39 63.8736 1074.56 61.8968 1072.21 60.429C1069.89 58.9612 1067.24 58.2273 1064.26 58.2273C1062.01 58.2273 1059.91 58.6771 1057.97 59.5767C1056.03 60.4527 1054.33 61.66 1052.86 63.1989C1051.41 64.7377 1050.28 66.5014 1049.45 68.4901C1048.62 70.455 1048.21 72.5265 1048.21 74.7045C1048.21 77.5928 1048.88 80.2917 1050.23 82.8011C1051.6 85.3106 1053.47 87.3348 1055.84 88.8736C1058.23 90.4124 1060.94 91.1818 1063.97 91.1818ZM1100.52 83.0852V75.8409L1132.48 25.2727H1137.74V36.4943H1134.19L1110.04 74.7045V75.2727H1153.08V83.0852H1100.52ZM1134.76 98V80.8835V77.5099V25.2727H1143.14V98H1134.76ZM1190.11 98.9943C1184.76 98.9943 1180.2 97.5384 1176.44 94.6264C1172.67 91.6908 1169.8 87.4413 1167.81 81.8778C1165.82 76.2907 1164.83 69.5436 1164.83 61.6364C1164.83 53.7765 1165.82 47.0649 1167.81 41.5014C1169.82 35.9143 1172.71 31.6529 1176.47 28.7173C1180.26 25.758 1184.81 24.2784 1190.11 24.2784C1195.41 24.2784 1199.95 25.758 1203.71 28.7173C1207.5 31.6529 1210.39 35.9143 1212.38 41.5014C1214.39 47.0649 1215.39 53.7765 1215.39 61.6364C1215.39 69.5436 1214.4 76.2907 1212.41 81.8778C1210.42 87.4413 1207.55 91.6908 1203.78 94.6264C1200.02 97.5384 1195.46 98.9943 1190.11 98.9943ZM1190.11 91.1818C1195.41 91.1818 1199.53 88.625 1202.47 83.5114C1205.4 78.3977 1206.87 71.1061 1206.87 61.6364C1206.87 55.339 1206.2 49.9768 1204.85 45.5497C1203.52 41.1226 1201.6 37.7491 1199.09 35.429C1196.61 33.1089 1193.61 31.9489 1190.11 31.9489C1184.85 31.9489 1180.75 34.5412 1177.79 39.7259C1174.83 44.8868 1173.35 52.1903 1173.35 61.6364C1173.35 67.9337 1174.01 73.2841 1175.34 77.6875C1176.66 82.0909 1178.57 85.4408 1181.05 87.7372C1183.56 90.0336 1186.58 91.1818 1190.11 91.1818ZM1252.61 98.9943C1247.26 98.9943 1242.7 97.5384 1238.94 94.6264C1235.17 91.6908 1232.3 87.4413 1230.31 81.8778C1228.32 76.2907 1227.33 69.5436 1227.33 61.6364C1227.33 53.7765 1228.32 47.0649 1230.31 41.5014C1232.32 35.9143 1235.21 31.6529 1238.97 28.7173C1242.76 25.758 1247.31 24.2784 1252.61 24.2784C1257.91 24.2784 1262.45 25.758 1266.21 28.7173C1270 31.6529 1272.89 35.9143 1274.88 41.5014C1276.89 47.0649 1277.89 53.7765 1277.89 61.6364C1277.89 69.5436 1276.9 76.2907 1274.91 81.8778C1272.92 87.4413 1270.05 91.6908 1266.28 94.6264C1262.52 97.5384 1257.96 98.9943 1252.61 98.9943ZM1252.61 91.1818C1257.91 91.1818 1262.03 88.625 1264.97 83.5114C1267.9 78.3977 1269.37 71.1061 1269.37 61.6364C1269.37 55.339 1268.7 49.9768 1267.35 45.5497C1266.02 41.1226 1264.1 37.7491 1261.59 35.429C1259.11 33.1089 1256.11 31.9489 1252.61 31.9489C1247.35 31.9489 1243.25 34.5412 1240.29 39.7259C1237.33 44.8868 1235.85 52.1903 1235.85 61.6364C1235.85 67.9337 1236.51 73.2841 1237.84 77.6875C1239.16 82.0909 1241.07 85.4408 1243.55 87.7372C1246.06 90.0336 1249.08 91.1818 1252.61 91.1818ZM1315.11 98.9943C1309.76 98.9943 1305.2 97.5384 1301.44 94.6264C1297.67 91.6908 1294.8 87.4413 1292.81 81.8778C1290.82 76.2907 1289.83 69.5436 1289.83 61.6364C1289.83 53.7765 1290.82 47.0649 1292.81 41.5014C1294.82 35.9143 1297.71 31.6529 1301.47 28.7173C1305.26 25.758 1309.81 24.2784 1315.11 24.2784C1320.41 24.2784 1324.95 25.758 1328.71 28.7173C1332.5 31.6529 1335.39 35.9143 1337.38 41.5014C1339.39 47.0649 1340.39 53.7765 1340.39 61.6364C1340.39 69.5436 1339.4 76.2907 1337.41 81.8778C1335.42 87.4413 1332.55 91.6908 1328.78 94.6264C1325.02 97.5384 1320.46 98.9943 1315.11 98.9943ZM1315.11 91.1818C1320.41 91.1818 1324.53 88.625 1327.47 83.5114C1330.4 78.3977 1331.87 71.1061 1331.87 61.6364C1331.87 55.339 1331.2 49.9768 1329.85 45.5497C1328.52 41.1226 1326.6 37.7491 1324.09 35.429C1321.61 33.1089 1318.61 31.9489 1315.11 31.9489C1309.85 31.9489 1305.75 34.5412 1302.79 39.7259C1299.83 44.8868 1298.35 52.1903 1298.35 61.6364C1298.35 67.9337 1299.01 73.2841 1300.34 77.6875C1301.66 82.0909 1303.57 85.4408 1306.05 87.7372C1308.56 90.0336 1311.58 91.1818 1315.11 91.1818ZM1377.61 98.9943C1372.26 98.9943 1367.7 97.5384 1363.94 94.6264C1360.17 91.6908 1357.3 87.4413 1355.31 81.8778C1353.32 76.2907 1352.33 69.5436 1352.33 61.6364C1352.33 53.7765 1353.32 47.0649 1355.31 41.5014C1357.32 35.9143 1360.21 31.6529 1363.97 28.7173C1367.76 25.758 1372.31 24.2784 1377.61 24.2784C1382.91 24.2784 1387.45 25.758 1391.21 28.7173C1395 31.6529 1397.89 35.9143 1399.88 41.5014C1401.89 47.0649 1402.89 53.7765 1402.89 61.6364C1402.89 69.5436 1401.9 76.2907 1399.91 81.8778C1397.92 87.4413 1395.05 91.6908 1391.28 94.6264C1387.52 97.5384 1382.96 98.9943 1377.61 98.9943ZM1377.61 91.1818C1382.91 91.1818 1387.03 88.625 1389.97 83.5114C1392.9 78.3977 1394.37 71.1061 1394.37 61.6364C1394.37 55.339 1393.7 49.9768 1392.35 45.5497C1391.02 41.1226 1389.1 37.7491 1386.59 35.429C1384.11 33.1089 1381.11 31.9489 1377.61 31.9489C1372.35 31.9489 1368.25 34.5412 1365.29 39.7259C1362.33 44.8868 1360.85 52.1903 1360.85 61.6364C1360.85 67.9337 1361.51 73.2841 1362.84 77.6875C1364.16 82.0909 1366.07 85.4408 1368.55 87.7372C1371.06 90.0336 1374.08 91.1818 1377.61 91.1818Z" fill="#737370"/>
<rect x="1159" y="3" width="257" height="101" stroke="#82D1F5" stroke-width="5"/>
</svg>
